{"title":"Den Fordomde 2010 Crime DVD9Rip Swedish Klam","uid":9547573,"size":3355799986,"categoryP":"video","categoryS":"movies","magnet":"?xt=urn:btih:8794818990b50be3a80d7fbd77f7e11b2f6e7588&amp;dn=Den+Fordomde+2010+Crime+DVD9Rip+Swedish+Klam&amp;tr=udp%3A%2F%2Ftracker.openbittorrent.com%3A80&amp;tr=udp%3A%2F%2Fopen.demonii.com%3A1337&amp;tr=udp%3A%2F%2Ftracker.coppersurfer.tk%3A6969&amp;tr=udp%3A%2F%2Fexodus.desync.com%3A6969","seeders":1,"leechers":2,"uploader":"Klambake","files":-1,"time":1391160971,"description":"Sebastian Bergman is een misdaad-profiler die wordt achtervolgd door de dood van zijn vrouw en kind in de tsunami van 2004. Hierdoor is hij een zuiplap en rokkenjager geworden die om niets meer geeft en zonder werk zit. Hij erft zijn moeder's huis en ziet nieuws over een gruwelijke moord op een 15 jarige jongen, wiens hart eruit is gesneden.\n\nCrime serie Swedish spoken!\n\nwww.imdb.com/title/tt1790954\t\n\n--------------------- Dutch Friends 4ever ---------------------\n---------------------------------------------------------------\n- Bezoek ook eens mijn vrienden op: &lt;a href=&quot; http://www.Film-Test.nl&quot; rel=&quot;nofollow&quot; target=&quot;_NEW&quot;&gt; http://www.Film-Test.nl&lt;/a&gt; --\n----- voor mijn Nederlandse Sync. ondertitels ---- en meer ----\n------- http://www.Film-Test.nl ---- Over Films en meer -------\n---------------------------------------------------------------\n\nGeneral:\n\nComplete name                    : G:KlambakeDen FordomdePart01.avi\nFormat                           : AVI\nFormat/Info                      : Audio Video Interleave\nFile size                        : 1.56 GiB\nDuration                         : 1h 29mn\nOverall bit rate                 : 2 508 Kbps\n\nVideo:\n\nFormat                           : MPEG-4 Visual\nFormat profile                   : Simple@L3\nFormat settings, BVOP            : No\nFormat settings, QPel            : No\nFormat settings, GMC             : No warppoints\nFormat settings, Matrix          : Default (H.263)\nCodec ID                         : XVID\nCodec ID/Hint                    : XviD\nDuration                         : 1h 29mn\nBit rate                         : 2 049 Kbps\nWidth                            : 704 pixels\nHeight                           : 396 pixels\nDisplay aspect ratio             : 16:9\nFrame rate                       : 25.000 fps\nColor space                      : YUV\nChroma subsampling               : 4:2:0\nBit depth                        : 8 bits\nScan type                        : Progressive\nCompression mode                 : Lossy\nBits/(Pixel*Frame)               : 0.294\nStream size                      : 1.27 GiB (82%)\nWriting library                  : XviD 1.1.2 (UTC 2006-11-01)\n\nAudio:\n\nFormat                           : AC-3\nFormat/Info                      : Audio Coding 3\nMode extension                   : CM (complete main)\nCodec ID                         : 2000\nDuration                         : 1h 29mn\nBit rate mode                    : Constant\nBit rate                         : 448 Kbps\nChannel(s)                       : 6 channels\nChannel positions                : Front: L C R, Side: L R, LFE\nSampling rate                    : 48.0 KHz\nBit depth                        : 16 bits\nCompression mode                 : Lossy\nStream size                      : 285 MiB (18%)\nAlignment                        : Aligned on interleaves\nInterleave, duration             : 32 ms (0.80 video frame)\nInterleave, preload duration     : 288 ms\n\n\n","torrent":{"xt":"urn:btih:8794818990b50be3a80d7fbd77f7e11b2f6e7588","amp;dn":"Den+Fordomde+2010+Crime+DVD9Rip+Swedish+Klam","amp;tr":["udp%3A%2F%2Ftracker.openbittorrent.com%3A80","udp%3A%2F%2Fopen.demonii.com%3A1337","udp%3A%2F%2Ftracker.coppersurfer.tk%3A6969","udp%3A%2F%2Fexodus.desync.com%3A6969"],"infoHash":"8794818990b50be3a80d7fbd77f7e11b2f6e7588","infoHashBuffer":{"type":"Buffer","data":[135,148,129,137,144,181,11,227,168,13,127,189,119,247,225,27,47,110,117,136]},"announce":[],"urlList":[]}}